<svg xmlns="http://www.w3.org/2000/svg" width="512" height="512" viewBox="0 0 473.939 473.939"><circle xmlns="http://www.w3.org/2000/svg" cx="236.969" cy="236.967" r="236.967" fill="#7377bf" data-original="#cc3731"/><path xmlns="http://www.w3.org/2000/svg" d="M404.527 69.384c92.542 92.542 92.546 242.588-.004 335.137-92.546 92.542-242.595 92.542-335.137 0L404.527 69.384z" fill="#7377bf" data-original="#bc2b2a"/><path xmlns="http://www.w3.org/2000/svg" d="M471.95 267.16L336.396 131.606l-28.06 28.06-29.938-29.938-38.013 6.93-13.122 5.545-42.379-8.037-38.043 23.697-7.296 72.067 59.244 59.244-36.355 7.76-34.926 16.838-9.167 55.85 103.808 103.812c4.905.299 9.83.505 14.806.505 120.635-.004 220.147-90.17 234.995-206.779z" fill="#7377bf" data-original="#a52728"/><g xmlns="http://www.w3.org/2000/svg"><path d="M235.648 141.99c2.193 1.355 4.636 3.33 7.36 5.931 2.615 2.713 5.171 6.05 7.682 9.991 2.402 3.734 4.531 8.127 6.391 13.212 1.523 5.078 2.286 11.012 2.286 17.788-.198 12.423-2.945 22.357-8.232 29.818a93.06 93.06 0 01-8.217 9.998 353.778 353.778 0 01-10.23 9.31c-2.08 2.144-3.981 4.569-5.744 7.285-2.065 2.821-3.102 6.092-3.102 9.815 0 3.641 1.059 6.623 3.188 8.988 1.792 2.26 3.555 4.239 5.253 5.934l11.783 9.654c7.315 6.002 13.736 12.572 19.255 19.805 5.197 7.353 7.899 16.947 8.131 28.797 0 16.827-7.439 31.727-22.301 44.729-15.394 13.448-37.639 20.382-66.694 20.827-24.325-.221-42.484-5.407-54.484-15.536-12.093-9.478-18.159-20.801-18.159-33.99 0-6.417 1.961-13.594 5.92-21.482 3.809-7.876 10.728-14.817 20.752-20.793 11.237-6.413 23.053-10.702 35.438-12.853 12.258-1.792 22.432-2.818 30.54-3.035a74.514 74.514 0 01-6.698-10.559c-2.286-3.637-3.42-8.019-3.42-13.111 0-3.065.43-5.635 1.302-7.667.76-2.17 1.474-4.135 2.118-5.964-3.944.445-7.667.681-11.147.681-18.492-.236-32.583-6.05-42.278-17.448-10.159-10.63-15.233-22.993-15.233-37.1 0-17.059 7.184-32.52 21.571-46.413 9.871-8.127 20.127-13.418 30.765-15.925 10.537-2.144 20.411-3.214 29.616-3.214h69.451l-21.444 12.524h-21.422v.003zm13.407 199.893c0-8.819-2.874-16.486-8.61-23.034-6.092-6.208-15.596-13.826-28.535-22.874-2.223-.236-4.819-.341-7.798-.341-1.77-.217-6.305 0-13.598.677-7.188 1.018-14.548 2.657-22.065 4.917-1.774.674-4.251 1.695-7.457 3.046-3.203 1.471-6.466 3.566-9.789 6.271-3.207 2.821-5.92 6.32-8.12 10.511-2.556 4.408-3.809 9.714-3.809 15.918 0 12.206 5.512 22.26 16.565 30.17 10.514 7.899 24.879 11.962 43.132 12.198 16.363-.236 28.86-3.843 37.474-10.844 8.408-6.903 12.61-15.76 12.61-26.615zm-48.407-101.791c9.141-.337 16.759-3.63 22.847-9.856 2.945-4.412 4.831-8.939 5.669-13.579.505-4.64.763-8.535.763-11.716 0-13.68-3.506-27.502-10.507-41.403-3.289-6.668-7.615-12.112-12.977-16.295-5.474-3.944-11.768-6.047-18.877-6.275-9.414.228-17.227 4.019-23.472 11.379-5.261 7.689-7.779 16.292-7.543 25.8 0 12.554 3.667 25.613 11.016 39.203 3.562 6.335 8.146 11.708 13.788 16.123 5.624 4.419 12.049 6.619 19.293 6.619zM372.59 167.4h-36.433v-36.452h-17.658V167.4h-36.434v17.65h36.434v36.438h17.658V185.05h36.433z" fill="#fff" data-original="#ffffff"/></g></svg>